<?xml version="1.0" encoding="utf-8"?>
<!-- Generator: Adobe Illustrator 19.1.0, SVG Export Plug-In . SVG Version: 6.00 Build 0)  -->
<svg version="1.1" id="Layer_1" xmlns="http://www.w3.org/2000/svg" xmlns:xlink="http://www.w3.org/1999/xlink" x="0px" y="0px"
	 viewBox="0 0 393.8 53.6" style="enable-background:new 0 0 393.8 53.6;" xml:space="preserve">
<style type="text/css">
	.st0{fill:#FFFFFF;}
</style>
<g id="XMLID_1_">
	<path id="XMLID_83_" class="st0" d="M8.5,53.6C7.4,53.6,6.4,53,6,52c-3.9-7.6-6-16.3-6-25.2S2.1,9.2,6,1.6c0.7-1.4,2.4-2,3.8-1.2
		c1.4,0.7,2,2.4,1.3,3.8C7.6,11,5.8,18.8,5.8,26.8s1.8,15.8,5.3,22.6c0.7,1.4,0.1,3.2-1.3,3.9C9.4,53.5,8.9,53.6,8.5,53.6z"/>
	<path id="XMLID_81_" class="st0" d="M44.5,33.3h0.2L50.3,11H56l-7.8,30.2h-6.6l-5.7-21.8h-0.2l-5.8,21.8h-6.6L15.5,11h6l5.6,22.2
		h0.2L33.1,11h5.5L44.5,33.3z"/>
	<path id="XMLID_78_" class="st0" d="M58.7,11h5.9v5.6h-5.9V11z M64.6,20.1v21.2h-5.8V20.1H64.6z"/>
	<path id="XMLID_76_" class="st0" d="M70.1,24.1h-3v-3.4l1.4-0.2c2.1-0.3,2.6-1.4,3.1-3.4l0.7-2.9h3.5v5.9h5.8v4h-5.8v10.5
		c0,1.8,0.8,2.6,2.5,2.6c1.2,0,2.4-0.4,3.6-1V40c-1.5,1.2-3.3,1.8-5.9,1.8c-3.3,0-6-1.4-6-6V24.1z"/>
	<path id="XMLID_74_" class="st0" d="M91,41.2h-5.8V11H91v12.5c1.1-2.4,3.7-4,6.9-4c5.7,0,7.7,3.8,7.7,8.5v13.2h-5.8v-12
		c0-3.3-1.3-5.1-4.1-5.1c-2.9,0-4.8,2.3-4.8,5.9V41.2z"/>
	<path id="XMLID_51_" class="st0" d="M110.2,11h5.9v5.6h-5.9V11z M116,20.1v21.2h-5.8V20.1H116z"/>
	<path id="XMLID_49_" class="st0" d="M126.6,41.2h-5.8V20.1h5.8v3.5c1.1-2.4,3.7-4,6.9-4c5.7,0,7.7,3.8,7.7,8.5v13.2h-5.8v-12
		c0-3.3-1.3-5.1-4.1-5.1c-2.9,0-4.8,2.3-4.8,5.9V41.2z"/>
	<path id="XMLID_47_" class="st0" d="M148.1,53.6c-0.4,0-0.9-0.1-1.3-0.3c-1.4-0.7-2-2.5-1.2-3.9c3.5-6.8,5.3-14.6,5.3-22.6
		s-1.8-15.8-5.3-22.6c-0.7-1.4-0.2-3.1,1.2-3.8c1.4-0.8,3.1-0.2,3.9,1.2c3.9,7.6,5.9,16.3,5.9,25.2s-2,17.6-5.9,25.2
		C150.2,53,149.2,53.6,148.1,53.6z"/>
	<path id="XMLID_45_" class="st0" d="M202.5,31.9h-36.2c-1.6,0-2.9-1.3-2.9-3c0-1.4,1.3-2.7,2.9-2.7h36.2c1.6,0,2.9,1.3,2.9,2.7
		C205.4,30.6,204.1,31.9,202.5,31.9z"/>
	<path id="XMLID_41_" class="st0" d="M227.2,41.2H213V11h13.4c7.6,0,10.9,3.3,10.9,8.2c0,3.4-2.3,5.8-5.6,6.3
		c3.6,0.7,6.5,3.1,6.5,7.4C238.3,38.2,234.3,41.2,227.2,41.2z M218.9,23.6h7.2c3.6,0,5.1-1.6,5.1-3.8s-1.5-3.9-5.1-3.9h-7.2V23.6z
		 M218.9,28.1v8.3h7.7c3.7,0,5.6-1.6,5.6-4.1c0-2.5-1.8-4.2-5.6-4.2H218.9z"/>
	<path id="XMLID_37_" class="st0" d="M262.5,34.3c-1.1,4.7-4.8,7.5-10.2,7.5c-6.5,0-11.2-4.2-11.2-10.8c0-6.7,4.8-11.5,11.1-11.5
		c6.9,0,10.5,4.8,10.5,10.6v2.1h-15.9c0.2,3.1,2.6,5.3,5.8,5.3c2.8,0,4.5-1.2,5.3-3.6L262.5,34.3z M257.1,28.5
		c-0.2-2.4-1.7-4.8-4.9-4.8c-3.2,0-4.8,2.2-5.3,4.8H257.1z"/>
	<path id="XMLID_23_" class="st0" d="M267.1,24.1h-3v-3.4l1.4-0.2c2.1-0.3,2.6-1.4,3.1-3.4l0.7-2.9h3.5v5.9h5.8v4h-5.8v10.5
		c0,1.8,0.8,2.6,2.5,2.6c1.2,0,2.4-0.4,3.6-1V40c-1.5,1.2-3.3,1.8-5.9,1.8c-3.3,0-6-1.4-6-6V24.1z"/>
	<path id="XMLID_21_" class="st0" d="M302.6,34.2h0.2l4.4-14.1h5.2l-6.7,21.2h-5.6l-3.8-14h-0.2l-3.8,14h-5.6l-6.7-21.2h5.7
		l4.4,14.1h0.2l3.8-14.1h4.7L302.6,34.2z"/>
	<path id="XMLID_10_" class="st0" d="M335,34.3c-1.1,4.7-4.8,7.5-10.2,7.5c-6.5,0-11.2-4.2-11.2-10.8c0-6.7,4.8-11.5,11.1-11.5
		c6.9,0,10.5,4.8,10.5,10.6v2.1h-15.9c0.2,3.1,2.6,5.3,5.8,5.3c2.8,0,4.5-1.2,5.3-3.6L335,34.3z M329.5,28.5
		c-0.2-2.4-1.7-4.8-4.9-4.8c-3.2,0-4.8,2.2-5.3,4.8H329.5z"/>
	<path id="XMLID_7_" class="st0" d="M359.2,34.3c-1.1,4.7-4.8,7.5-10.2,7.5c-6.5,0-11.2-4.2-11.2-10.8c0-6.7,4.8-11.5,11.1-11.5
		c6.9,0,10.5,4.8,10.5,10.6v2.1h-15.9c0.2,3.1,2.6,5.3,5.8,5.3c2.8,0,4.5-1.2,5.3-3.6L359.2,34.3z M353.7,28.5
		c-0.2-2.4-1.7-4.8-4.9-4.8c-3.2,0-4.8,2.2-5.3,4.8H353.7z"/>
	<path id="XMLID_5_" class="st0" d="M368.8,41.2H363V20.1h5.8v3.5c1.1-2.4,3.7-4,6.9-4c5.7,0,7.7,3.8,7.7,8.5v13.2h-5.8v-12
		c0-3.3-1.3-5.1-4.1-5.1c-2.9,0-4.8,2.3-4.8,5.9V41.2z"/>
	<path id="XMLID_2_" class="st0" d="M393.8,39.6c0,1.7-1.4,3.1-3.1,3.1c-1.7,0-3.1-1.4-3.1-3.1c0-1.7,1.4-3.1,3.1-3.1
		C392.4,36.5,393.8,37.9,393.8,39.6z"/>
</g>
</svg>
